<svg xmlns="http://www.w3.org/2000/svg" width="399.7789611816406" height="308.98321533203125" viewBox="-94.99442291259766 -56.328067779541016 399.7789611816406 308.98321533203125"><title>Neo4j Graph Visualization</title><desc>Created using Neo4j (http://www.neo4j.com/)</desc><g class="layer relationships"><g class="relationship" transform="translate(221.54217865247062 -27.32806815896167) rotate(420.21649673593186)"><path class="outline" fill="#A5ABB6" stroke="none" d="M 24.018736134675446,-6.953439040707552 L 24.277555179777966,-5.987513214418485 A 108.06451798562654 108.06451798562654 0 0 1 40.94082410023458,-9.076674923719835 L 40.83620246637368,-10.071187022051603 A 109.06451798562654 109.06451798562654 0 0 0 24.018736134675446,-6.953439040707552 Z M 60.23311892206342,-10.376921135511694 L 60.159892463676336,-9.379605796317477 A 108.06451798562654 108.06451798562654 0 0 1 76.91224229789539,-6.817140925610017 L 76.22749769652047,-3.8963319912755736 L 83.8415872449049,-5.706205011457623 L 77.8252350997286,-10.711552838055942 L 77.14049049835369,-7.7907439037214985 A 109.06451798562654 109.06451798562654 0 0 0 60.23311892206342,-10.376921135511694"/><text text-anchor="middle" pointer-events="none" font-size="8px" fill="#000000" x="50.535729595630016" y="-7.156238972567152" font-family="sans-serif">trek</text></g><g class="relationship" transform="translate(275.2786162606633 66.56371636372532) rotate(450.25541697037875)"><path class="outline" fill="#A5ABB6" stroke="none" d="M 21.40063509461097,-12.933012701892217 L 21.90063509461097,-12.06698729810778 A 67.31053491659428 67.31053491659428 0 0 1 44.06379258960819,-20.09659412353527 L 43.89305988071589,-21.081911504948124 A 68.31053491659428 68.31053491659428 0 0 0 21.40063509461097,-12.933012701892217 Z M 63.29748487637488,-21.644797491552737 L 63.18415561708978,-20.651240005047867 A 67.31053491659428 67.31053491659428 0 0 1 85.77550115904396,-13.9198773998222 L 84.42862736089714,-11.239218717358959 L 92.25485038448265,-11.223948317890159 L 87.57133288990639,-17.494088976439855 L 86.22445909175957,-14.813430293976614 A 68.31053491659428 68.31053491659428 0 0 0 63.29748487637488,-21.644797491552737"/><text text-anchor="middle" pointer-events="none" font-size="8px" fill="#000000" x="53.58967316587485" y="-18.55637671746669" transform="rotate(180 53.58967316587485 -21.55637671746669)" font-family="sans-serif">trek</text></g><g class="relationship" transform="translate(274.7677745892186 181.1562504680428) rotate(529.7770314750225)"><path class="outline" fill="#A5ABB6" stroke="none" d="M 21.40063509461097,12.933012701892217 L 21.90063509461097,12.06698729810778 A 64.9368180342222 64.9368180342222 0 0 0 42.91540356432444,19.74878644523792 L 42.739022261788776,20.7331083621512 A 65.9368180342222 65.9368180342222 0 0 1 21.40063509461097,12.933012701892217 Z M 62.143415564703616,21.30694321600194 L 62.02550918576755,20.313918500395033 A 64.9368180342222 64.9368180342222 0 0 0 83.45749555052272,13.88737258260536 L 82.11364537495032,11.2051968416044 L 89.93988064212036,11.198751463103273 L 85.24929578461925,17.463606903939976 L 83.90544560904685,14.781431162939013 A 65.9368180342222 65.9368180342222 0 0 1 62.143415564703616,21.30694321600194"/><text text-anchor="middle" pointer-events="none" font-size="8px" fill="#000000" x="52.434764700981994" y="24.23827686322207" transform="rotate(180 52.434764700981994 21.23827686322207)" font-family="sans-serif">trek</text></g><g class="relationship" transform="translate(164.25910621954995 201.08563607981495) rotate(529.4805216141417)"><path class="outline" fill="#A5ABB6" stroke="none" d="M 25 0.5 L 48.64267291268106 0.5 L 48.64267291268106 -0.5 L 25 -0.5 Z M 67.97861041268106 0.5 L 91.62128332536211 0.5 L 91.62128332536211 3.5 L 98.62128332536211 0 L 91.62128332536211 -3.5 L 91.62128332536211 -0.5 L 67.97861041268106 -0.5 Z"/><text text-anchor="middle" pointer-events="none" font-size="8px" fill="#000000" x="58.31064166268106" y="3" transform="rotate(180 58.31064166268106 0)" font-family="sans-serif">trek</text></g><g class="relationship" transform="translate(221.54217865247062 -27.32806815896167) rotate(420.21649673593186)"><path class="outline" fill="#A5ABB6" stroke="none" d="M 24.018736134675446,6.953439040707552 L 24.277555179777966,5.987513214418485 A 108.06451798562654 108.06451798562654 0 0 0 39.61729561417917,8.929190178437182 L 39.50042640349354,9.92233749258233 A 109.06451798562654 109.06451798562654 0 0 1 24.018736134675446,6.953439040707552 Z M 61.57292259383745,10.270244082272598 L 61.48741162994372,9.27390685268918 A 108.06451798562654 108.06451798562654 0 0 0 76.91224229789539,6.817140925610017 L 76.22749769652047,3.8963319912755736 L 83.8415872449049,5.706205011457623 L 77.8252350997286,10.711552838055942 L 77.14049049835369,7.7907439037214985 A 109.06451798562654 109.06451798562654 0 0 1 61.57292259383745,10.270244082272598"/><text text-anchor="middle" pointer-events="none" font-size="8px" fill="#000000" x="50.53572959563005" y="13.156238972567152" font-family="sans-serif">road</text></g><g class="relationship" transform="translate(275.2786162606633 66.56371636372532) rotate(450.25541697037875)"><path class="outline" fill="#A5ABB6" stroke="none" d="M 25 0.5 L 42.79097699417149 0.5 L 42.79097699417149 -0.5 L 25 -0.5 Z M 64.80269574417149 0.5 L 82.59367273834297 0.5 L 82.59367273834297 3.5 L 89.59367273834297 0 L 82.59367273834297 -3.5 L 82.59367273834297 -0.5 L 64.80269574417149 -0.5 Z"/><text text-anchor="middle" pointer-events="none" font-size="8px" fill="#000000" x="53.79683636917149" y="3" transform="rotate(180 53.79683636917149 0)" font-family="sans-serif">road</text></g><g class="relationship" transform="translate(275.2786162606633 66.56371636372532) rotate(450.25541697037875)"><path class="outline" fill="#A5ABB6" stroke="none" d="M 21.40063509461097,12.933012701892217 L 21.90063509461097,12.06698729810778 A 67.31053491659428 67.31053491659428 0 0 0 31.114504729004565,16.4905895213942 L 30.751390725317187,17.4223342398263 A 68.31053491659428 68.31053491659428 0 0 1 21.40063509461097,12.933012701892217 Z M 76.62919239440413,18.75316324720643 L 76.32069986294869,17.801936482425177 A 67.31053491659428 67.31053491659428 0 0 0 85.77550115904396,13.9198773998222 L 84.42862736089714,11.239218717358959 L 92.25485038448265,11.223948317890159 L 87.57133288990639,17.494088976439855 L 86.22445909175957,14.813430293976614 A 68.31053491659428 68.31053491659428 0 0 1 76.62919239440413,18.75316324720643"/><text text-anchor="middle" pointer-events="none" font-size="8px" fill="#000000" x="53.58967316587485" y="24.55637671746669" transform="rotate(180 53.58967316587485 21.55637671746669)" font-family="sans-serif">twowheeler</text></g><g class="relationship" transform="translate(274.7677745892186 181.1562504680428) rotate(529.7770314750225)"><path class="outline" fill="#A5ABB6" stroke="none" d="M 25 0.5 L 41.639813200230854 0.5 L 41.639813200230854 -0.5 L 25 -0.5 Z M 63.651531950230854 0.5 L 80.29134515046171 0.5 L 80.29134515046171 3.5 L 87.29134515046171 0 L 80.29134515046171 -3.5 L 80.29134515046171 -0.5 L 63.651531950230854 -0.5 Z"/><text text-anchor="middle" pointer-events="none" font-size="8px" fill="#000000" x="52.645672575230854" y="3" transform="rotate(180 52.645672575230854 0)" font-family="sans-serif">road</text></g><g class="relationship" transform="translate(274.7677745892186 181.1562504680428) rotate(529.7770314750225)"><path class="outline" fill="#A5ABB6" stroke="none" d="M 21.40063509461097,-12.933012701892217 L 21.90063509461097,-12.06698729810778 A 64.9368180342222 64.9368180342222 0 0 1 30.005519836863083,-16.02315102756308 L 29.630331692257364,-16.950099707991136 A 65.9368180342222 65.9368180342222 0 0 0 21.40063509461097,-12.933012701892217 Z M 75.45274826953148,-18.305179421602112 L 75.13299210315314,-17.35767955666121 A 64.9368180342222 64.9368180342222 0 0 1 83.45749555052272,-13.88737258260536 L 82.11364537495032,-11.2051968416044 L 89.93988064212036,-11.198751463103273 L 85.24929578461925,-17.463606903939976 L 83.90544560904685,-14.781431162939013 A 65.9368180342222 65.9368180342222 0 0 0 75.45274826953148,-18.305179421602112"/><text text-anchor="middle" pointer-events="none" font-size="8px" fill="#000000" x="52.43476470098197" y="-18.23827686322207" transform="rotate(180 52.43476470098197 -21.23827686322207)" font-family="sans-serif">twowheeler</text></g><g class="relationship" transform="translate(221.54217865247062 -27.32806815896167) rotate(481.47404347291604)"><path class="outline" fill="#A5ABB6" stroke="none" d="M 21.40063509461097,12.933012701892217 L 21.90063509461097,12.06698729810778 A 66.76424528150247 66.76424528150247 0 0 0 23.98176292618181,13.219585288081184 L 23.512934218881906,14.102874393194284 A 67.76424528150247 67.76424528150247 0 0 1 21.40063509461097,12.933012701892217 Z M 83.51373439686579,15.85106587721387 L 83.09712861096456,14.941978632141307 A 66.76424528150247 66.76424528150247 0 0 0 85.24183357605253,13.912505081943626 L 83.89564555066386,11.231501948730212 L 91.7218722244486,11.21823354490562 L 87.03675094323742,17.48717592622818 L 85.69056291784875,14.806172793014765 A 67.76424528150247 67.76424528150247 0 0 1 83.51373439686579,15.85106587721387"/><text text-anchor="middle" pointer-events="none" font-size="8px" fill="#000000" x="53.32376885634621" y="24.483167472126567" transform="rotate(180 53.32376885634621 21.483167472126567)" font-family="sans-serif">PublicTransport</text></g><g class="relationship" transform="translate(161.9881949745598 69.954098186573) rotate(449.00786167000547)"><path class="outline" fill="#A5ABB6" stroke="none" d="M 25 0.5 L 52.407631262751266 0.5 L 52.407631262751266 -0.5 L 25 -0.5 Z M 71.74356876275127 0.5 L 99.15120002550253 0.5 L 99.15120002550253 3.5 L 106.15120002550253 0 L 99.15120002550253 -3.5 L 99.15120002550253 -0.5 L 71.74356876275127 -0.5 Z"/><text text-anchor="middle" pointer-events="none" font-size="8px" fill="#000000" x="62.075600012751266" y="3" font-family="sans-serif">trek</text></g><g class="relationship" transform="translate(221.54217865247062 -27.32806815896167) rotate(481.47404347291604)"><path class="outline" fill="#A5ABB6" stroke="none" d="M 25 0.5 L 42.525923125613524 0.5 L 42.525923125613524 -0.5 L 25 -0.5 Z M 64.53764187561353 0.5 L 82.06356500122705 0.5 L 82.06356500122705 3.5 L 89.06356500122705 0 L 82.06356500122705 -3.5 L 82.06356500122705 -0.5 L 64.53764187561353 -0.5 Z"/><text text-anchor="middle" pointer-events="none" font-size="8px" fill="#000000" x="53.531782500613524" y="3" transform="rotate(180 53.531782500613524 0)" font-family="sans-serif">road</text></g><g class="relationship" transform="translate(221.54217865247062 -27.32806815896167) rotate(481.47404347291604)"><path class="outline" fill="#A5ABB6" stroke="none" d="M 21.40063509461097,-12.933012701892217 L 21.90063509461097,-12.06698729810778 A 66.76424528150247 66.76424528150247 0 0 1 43.79934049856846,-20.01671493863097 L 43.62734099212043,-21.001811974349593 A 67.76424528150247 67.76424528150247 0 0 0 21.40063509461097,-12.933012701892217 Z M 63.031773696285285,-21.567182167830765 L 62.91742112098938,-20.5737419388672 A 66.76424528150247 66.76424528150247 0 0 1 85.24183357605253,-13.912505081943626 L 83.89564555066386,-11.231501948730212 L 91.7218722244486,-11.21823354490562 L 87.03675094323742,-17.48717592622818 L 85.69056291784875,-14.806172793014765 A 67.76424528150247 67.76424528150247 0 0 0 63.031773696285285,-21.567182167830765"/><text text-anchor="middle" pointer-events="none" font-size="8px" fill="#000000" x="53.32376885634622" y="-18.483167472126567" transform="rotate(180 53.32376885634622 -21.483167472126567)" font-family="sans-serif">trek</text></g><g class="relationship" transform="translate(161.9881949745598 69.954098186573) rotate(207.472329015284)"><path class="outline" fill="#A5ABB6" stroke="none" d="M 24.018736134675446,-6.953439040707552 L 24.277555179777966,-5.987513214418485 A 142.98928652384194 142.98928652384194 0 0 1 49.709367869426416,-10.390361232540869 L 49.628406993337194,-11.38707851268748 A 143.98928652384194 143.98928652384194 0 0 0 24.018736134675446,-6.953439040707552 Z M 69.01523238599756,-11.652150704704894 L 68.96155251303738,-10.65359250848448 A 142.98928652384194 142.98928652384194 0 0 1 94.5042342753578,-6.947708573325262 L 93.80729405056587,-4.029785626592952 L 101.42887785519852,-5.807835206599463 L 95.43348790841372,-10.838272502301676 L 94.7365476836218,-7.9203495555693655 A 143.98928652384194 143.98928652384194 0 0 0 69.01523238599756,-11.652150704704894"/><text text-anchor="middle" pointer-events="none" font-size="8px" fill="#000000" x="59.32418877662467" y="-8.346344546561255" transform="rotate(180 59.32418877662467 -11.346344546561255)" font-family="sans-serif">trek</text></g><g class="relationship" transform="translate(50.4230760385862 11.945437460525437) rotate(469.9116724155914)"><path class="outline" fill="#A5ABB6" stroke="none" d="M 24.018736134675446,-6.953439040707552 L 24.277555179777966,-5.987513214418485 A 109.22974483907836 109.22974483907836 0 0 1 41.23187625516859,-9.121643457213054 L 41.12827428120698,-10.116262294251271 A 110.22974483907836 110.22974483907836 0 0 0 24.018736134675446,-6.953439040707552 Z M 60.52481258047793,-10.420446588240708 L 60.45244990599018,-9.423068203002202 A 109.22974483907836 109.22974483907836 0 0 1 77.49671082342662,-6.822117360601948 L 76.8115013846141,-3.9014174402126183 L 84.42587887747048,-5.710078656770966 L 78.41032340850998,-10.716383921121054 L 77.72511396969746,-7.7956840007317245 A 110.22974483907836 110.22974483907836 0 0 0 60.52481258047793,-10.420446588240708"/><text text-anchor="middle" pointer-events="none" font-size="8px" fill="#000000" x="50.82767913118671" y="-7.195935662041464" transform="rotate(180 50.82767913118671 -10.195935662041464)" font-family="sans-serif">trek</text></g><g class="relationship" transform="translate(13.38084499621604 114.20837359726852) rotate(434.9958391521516)"><path class="outline" fill="#A5ABB6" stroke="none" d="M 24.018736134675446,6.953439040707552 L 24.277555179777966,5.987513214418485 A 118.29387265794963 118.29387265794963 0 0 0 43.4999010355419,9.468233701615745 L 43.403578537588075,10.46358387938632 A 119.29387265794963 119.29387265794963 0 0 1 24.018736134675446,6.953439040707552 Z M 62.797265113959604,10.756211519703115 L 62.73101692706377,9.758408343854782 A 118.29387265794963 118.29387265794963 0 0 0 82.04962793559163,6.859225008881589 L 81.36095239434383,3.9393404223119335 L 88.97747122779545,5.738962843731664 L 82.96786199058869,10.75240445764113 L 82.27918644934088,7.832519871071474 A 119.29387265794963 119.29387265794963 0 0 1 62.797265113959604,10.756211519703115"/><text text-anchor="middle" pointer-events="none" font-size="8px" fill="#000000" x="53.10200825172514" y="13.504758459646624" font-family="sans-serif">trek</text></g><g class="relationship" transform="translate(161.9881949745598 69.954098186573) rotate(207.472329015284)"><path class="outline" fill="#A5ABB6" stroke="none" d="M 24.018736134675446,6.953439040707552 L 24.277555179777966,5.987513214418485 A 142.98928652384194 142.98928652384194 0 0 0 36.30830003475846,8.661289457403655 L 36.13361837608156,9.645914420586024 A 143.98928652384194 143.98928652384194 0 0 1 24.018736134675446,6.953439040707552 Z M 82.55258064561033,10.280591621764898 L 82.40488441500001,9.291558850081628 A 142.98928652384194 142.98928652384194 0 0 0 94.5042342753578,6.947708573325262 L 93.80729405056587,4.029785626592952 L 101.42887785519852,5.807835206599463 L 95.43348790841372,10.838272502301676 L 94.7365476836218,7.9203495555693655 A 143.98928652384194 143.98928652384194 0 0 1 82.55258064561033,10.280591621764898"/><text text-anchor="middle" pointer-events="none" font-size="8px" fill="#000000" x="59.32418877662468" y="14.346344546561255" transform="rotate(180 59.32418877662468 11.346344546561255)" font-family="sans-serif">twowheeler</text></g><g class="relationship" transform="translate(50.4230760385862 11.945437460525437) rotate(469.9116724155914)"><path class="outline" fill="#A5ABB6" stroke="none" d="M 24.018736134675446,6.953439040707552 L 24.277555179777966,5.987513214418485 A 109.22974483907836 109.22974483907836 0 0 0 27.922423495048985,6.8972727365950846 L 27.69697327563255,7.871527425352127 A 110.22974483907836 110.22974483907836 0 0 1 24.018736134675446,6.953439040707552 Z M 74.0198970378626,8.597982096940129 L 73.82510747690165,7.617137039379742 A 109.22974483907836 109.22974483907836 0 0 0 77.49671082342662,6.822117360601948 L 76.8115013846141,3.9014174402126183 L 84.42587887747048,5.710078656770966 L 78.41032340850998,10.716383921121054 L 77.72511396969746,7.7956840007317245 A 110.22974483907836 110.22974483907836 0 0 1 74.0198970378626,8.597982096940129"/><text text-anchor="middle" pointer-events="none" font-size="8px" fill="#000000" x="50.82767913118673" y="13.195935662041464" transform="rotate(180 50.82767913118673 10.195935662041464)" font-family="sans-serif">twowheeler</text></g><g class="relationship" transform="translate(13.38084499621604 114.20837359726852) rotate(434.9958391521516)"><path class="outline" fill="#A5ABB6" stroke="none" d="M 24.018736134675446,-6.953439040707552 L 24.277555179777966,-5.987513214418485 A 118.29387265794963 118.29387265794963 0 0 1 30.158743591266152,-7.403248237329592 L 29.949641308996256,-8.381142012516605 A 119.29387265794963 119.29387265794963 0 0 0 24.018736134675446,-6.953439040707552 Z M 76.30790639530495,-9.08063303852478 L 76.12840309328611,-8.096875667744598 A 118.29387265794963 118.29387265794963 0 0 1 82.04962793559163,-6.859225008881589 L 81.36095239434383,-3.9393404223119335 L 88.97747122779545,-5.738962843731664 L 82.96786199058869,-10.75240445764113 L 82.27918644934088,-7.832519871071474 A 119.29387265794963 119.29387265794963 0 0 0 76.30790639530495,-9.08063303852478"/><text text-anchor="middle" pointer-events="none" font-size="8px" fill="#000000" x="53.10200825172514" y="-7.504758459646624" font-family="sans-serif">twowheeler</text></g><g class="relationship" transform="translate(161.9881949745598 69.954098186573) rotate(358.2858514665779)"><path class="outline" fill="#A5ABB6" stroke="none" d="M 25 0.5 L 43.50260175199756 0.5 L 43.50260175199756 -0.5 L 25 -0.5 Z M 62.83853925199756 0.5 L 81.34114100399512 0.5 L 81.34114100399512 3.5 L 88.34114100399512 0 L 81.34114100399512 -3.5 L 81.34114100399512 -0.5 L 62.83853925199756 -0.5 Z"/><text text-anchor="middle" pointer-events="none" font-size="8px" fill="#000000" x="53.17057050199756" y="3" font-family="sans-serif">trek</text></g><g class="relationship" transform="translate(50.4230760385862 11.945437460525437) rotate(524.6449167823306)"><path class="outline" fill="#A5ABB6" stroke="none" d="M 24.018736134675446,-6.953439040707552 L 24.277555179777966,-5.987513214418485 A 127.40818448067245 127.40818448067245 0 0 1 45.786922471736254,-9.811829210461767 L 45.6969259193145,-10.807771287367942 A 128.40818448067245 128.40818448067245 0 0 0 24.018736134675446,-6.953439040707552 Z M 65.08792248852927,-11.089605517044959 L 65.02690844417607,-10.091468609405695 A 127.40818448067245 127.40818448067245 0 0 1 86.63833404899206,-6.893882415812029 L 85.94642133529655,-3.9747632341706733 L 93.56493092510449,-5.765939280796033 L 87.56088433391943,-10.786041324667169 L 86.86897162022392,-7.866922143025813 A 128.40818448067245 128.40818448067245 0 0 0 65.08792248852927,-11.089605517044959"/><text text-anchor="middle" pointer-events="none" font-size="8px" fill="#000000" x="55.394362415135696" y="-7.815333958211411" transform="rotate(180 55.394362415135696 -10.815333958211411)" font-family="sans-serif">trek</text></g><g class="relationship" transform="translate(-63.25952988410702 43.16298215997934) rotate(402.83042256081416)"><path class="outline" fill="#A5ABB6" stroke="none" d="M 21.40063509461097,12.933012701892217 L 21.90063509461097,12.06698729810778 A 56.885233164498985 56.885233164498985 0 0 0 37.73866969430644,18.274132402738005 L 37.51709053779486,19.249274791007338 A 57.885233164498985 57.885233164498985 0 0 1 21.40063509461097,12.933012701892217 Z M 59.573681623956475,19.947478411985408 L 59.41422074866096,18.960274162982202 A 56.885233164498985 56.885233164498985 0 0 0 75.61312848859764,13.767261707373653 L 74.28045168975272,11.079516825540473 L 82.10664601268255,11.10563999037436 L 77.39003088705753,17.35092154981789 L 76.05735408821262,14.663176667984711 A 57.885233164498985 57.885233164498985 0 0 1 59.573681623956475,19.947478411985408"/><text text-anchor="middle" pointer-events="none" font-size="8px" fill="#000000" x="48.52762576086165" y="23.159433726292974" font-family="sans-serif">road</text></g><g class="relationship" transform="translate(50.4230760385862 11.945437460525437) rotate(524.6449167823306)"><path class="outline" fill="#A5ABB6" stroke="none" d="M 24.018736134675446,6.953439040707552 L 24.277555179777966,5.987513214418485 A 127.40818448067245 127.40818448067245 0 0 0 32.419946458151045,7.885268360546107 L 32.22503532690479,8.866089267193331 A 128.40818448067245 128.40818448067245 0 0 1 24.018736134675446,6.953439040707552 Z M 78.61055252472522,9.54026949619572 L 78.44422875972697,8.554198299376324 A 127.40818448067245 127.40818448067245 0 0 0 86.63833404899206,6.893882415812029 L 85.94642133529655,3.9747632341706733 L 93.56493092510449,5.765939280796033 L 87.56088433391943,10.786041324667169 L 86.86897162022392,7.866922143025813 A 128.40818448067245 128.40818448067245 0 0 1 78.61055252472522,9.54026949619572"/><text text-anchor="middle" pointer-events="none" font-size="8px" fill="#000000" x="55.394362415135745" y="13.815333958211411" transform="rotate(180 55.394362415135745 10.815333958211411)" font-family="sans-serif">twowheeler</text></g><g class="relationship" transform="translate(-63.25952988410702 43.16298215997934) rotate(402.83042256081416)"><path class="outline" fill="#A5ABB6" stroke="none" d="M 25 0.5 L 25.519838138979523 0.5 L 25.519838138979523 -0.5 L 25 -0.5 Z M 71.98468188897952 0.5 L 72.50452002795905 0.5 L 72.50452002795905 3.5 L 79.50452002795905 0 L 72.50452002795905 -3.5 L 72.50452002795905 -0.5 L 71.98468188897952 -0.5 Z"/><text text-anchor="middle" pointer-events="none" font-size="8px" fill="#000000" x="48.75226001397952" y="3" font-family="sans-serif">twowheeler</text></g><g class="relationship" transform="translate(-63.25952988410702 43.16298215997934) rotate(402.83042256081416)"><path class="outline" fill="#A5ABB6" stroke="none" d="M 21.40063509461097,-12.933012701892217 L 21.90063509461097,-12.06698729810778 A 56.885233164498985 56.885233164498985 0 0 1 39.03524453272455,-18.552896435355898 L 38.8364581954789,-19.532939287543726 A 57.885233164498985 57.885233164498985 0 0 0 21.40063509461097,-12.933012701892217 Z M 58.23901457297505,-20.147129171469103 L 58.10261082258026,-19.156475843165893 A 56.885233164498985 56.885233164498985 0 0 1 75.61312848859764,-13.767261707373653 L 74.28045168975272,-11.079516825540473 L 82.10664601268255,-11.10563999037436 L 77.39003088705753,-17.35092154981789 L 76.05735408821262,-14.663176667984711 A 57.885233164498985 57.885233164498985 0 0 0 58.23901457297505,-20.147129171469103"/><text text-anchor="middle" pointer-events="none" font-size="8px" fill="#000000" x="48.52762576086166" y="-17.159433726292974" font-family="sans-serif">trek</text></g><g class="relationship" transform="translate(-63.25952988410702 43.16298215997934) rotate(451.26793414684005)"><path class="outline" fill="#A5ABB6" stroke="none" d="M 25 0.5 L 48.62957476966032 0.5 L 48.62957476966032 -0.5 L 25 -0.5 Z M 67.96551226966032 0.5 L 91.59508703932065 0.5 L 91.59508703932065 3.5 L 98.59508703932065 0 L 91.59508703932065 -3.5 L 91.59508703932065 -0.5 L 67.96551226966032 -0.5 Z"/><text text-anchor="middle" pointer-events="none" font-size="8px" fill="#000000" x="58.29754351966032" y="3" transform="rotate(180 58.29754351966032 0)" font-family="sans-serif">trek</text></g><g class="relationship" transform="translate(-65.9944196468387 166.72780692108583) rotate(387.6393696522822)"><path class="outline" fill="#A5ABB6" stroke="none" d="M 25 0.5 L 48.1887282197573 0.5 L 48.1887282197573 -0.5 L 25 -0.5 Z M 67.52466571975731 0.5 L 90.7133939395146 0.5 L 90.7133939395146 3.5 L 97.7133939395146 0 L 90.7133939395146 -3.5 L 90.7133939395146 -0.5 L 67.52466571975731 -0.5 Z"/><text text-anchor="middle" pointer-events="none" font-size="8px" fill="#000000" x="57.8566969697573" y="3" font-family="sans-serif">trek</text></g></g><g class="layer nodes"><g class="node" transform="translate(221.54217865247062,-27.32806815896167)"><circle class="outline" cx="0" cy="0" r="25" fill="#F16667" stroke="#eb2728" stroke-width="2px"/><text text-anchor="middle" pointer-events="none" font-family="sans-serif" dy="1.5625" font-size="25" fill="#FFFFFF"/><text text-anchor="middle" pointer-events="none" x="0" y="5" font-size="10px" fill="#FFFFFF" font-family="sans-serif"> Darjeeling</text></g><g class="node" transform="translate(42.71553846208267,223.65514710232966)"><circle class="outline" cx="0" cy="0" r="25" fill="#8DCC93" stroke="#5db665" stroke-width="2px"/><text text-anchor="middle" pointer-events="none" font-family="sans-serif" dy="1.5625" font-size="25" fill="#2A2C34"/><text text-anchor="middle" pointer-events="none" x="0" y="5" font-size="10px" fill="#2A2C34" font-family="sans-serif"> Sandak…</text></g><g class="node" transform="translate(275.2786162606633,66.56371636372532)"><circle class="outline" cx="0" cy="0" r="25" fill="#D9C8AE" stroke="#c0a378" stroke-width="2px"/><text text-anchor="middle" pointer-events="none" font-family="sans-serif" dy="1.5625" font-size="25" fill="#2A2C34"/><text text-anchor="middle" pointer-events="none" x="0" y="5" font-size="10px" fill="#2A2C34" font-family="sans-serif"> Tumbling</text></g><g class="node" transform="translate(274.7677745892186,181.1562504680428)"><circle class="outline" cx="0" cy="0" r="25" fill="#D9C8AE" stroke="#c0a378" stroke-width="2px"/><text text-anchor="middle" pointer-events="none" font-family="sans-serif" dy="1.5625" font-size="25" fill="#2A2C34"/><text text-anchor="middle" pointer-events="none" x="0" y="5" font-size="10px" fill="#2A2C34" font-family="sans-serif"> Gairibus</text></g><g class="node" transform="translate(164.25910621954995,201.08563607981495)"><circle class="outline" cx="0" cy="0" r="25" fill="#D9C8AE" stroke="#c0a378" stroke-width="2px"/><text text-anchor="middle" pointer-events="none" font-family="sans-serif" dy="1.5625" font-size="25" fill="#2A2C34"/><text text-anchor="middle" pointer-events="none" x="0" y="5" font-size="10px" fill="#2A2C34" font-family="sans-serif"> BhikeBh…</text></g><g class="node" transform="translate(161.9881949745598,69.954098186573)"><circle class="outline" cx="0" cy="0" r="25" fill="#F16667" stroke="#eb2728" stroke-width="2px"/><text text-anchor="middle" pointer-events="none" font-family="sans-serif" dy="1.5625" font-size="25" fill="#FFFFFF"/><text text-anchor="middle" pointer-events="none" x="0" y="5" font-size="10px" fill="#FFFFFF" font-family="sans-serif"> Rimbik</text></g><g class="node" transform="translate(50.4230760385862,11.945437460525437)"><circle class="outline" cx="0" cy="0" r="25" fill="#D9C8AE" stroke="#c0a378" stroke-width="2px"/><text text-anchor="middle" pointer-events="none" font-family="sans-serif" dy="1.5625" font-size="25" fill="#2A2C34"/><text text-anchor="middle" pointer-events="none" x="0" y="5" font-size="10px" fill="#2A2C34" font-family="sans-serif"> Sirikhola</text></g><g class="node" transform="translate(13.38084499621604,114.20837359726852)"><circle class="outline" cx="0" cy="0" r="25" fill="#D9C8AE" stroke="#c0a378" stroke-width="2px"/><text text-anchor="middle" pointer-events="none" font-family="sans-serif" dy="1.5625" font-size="25" fill="#2A2C34"/><text text-anchor="middle" pointer-events="none" x="0" y="5" font-size="10px" fill="#2A2C34" font-family="sans-serif"> Gurdum</text></g><g class="node" transform="translate(-63.25952988410702,43.16298215997934)"><circle class="outline" cx="0" cy="0" r="25" fill="#D9C8AE" stroke="#c0a378" stroke-width="2px"/><text text-anchor="middle" pointer-events="none" font-family="sans-serif" dy="1.5625" font-size="25" fill="#2A2C34"/><text text-anchor="middle" pointer-events="none" x="0" y="5" font-size="10px" fill="#2A2C34" font-family="sans-serif"> Rammam</text></g><g class="node" transform="translate(-65.9944196468387,166.72780692108583)"><circle class="outline" cx="0" cy="0" r="25" fill="#8DCC93" stroke="#5db665" stroke-width="2px"/><text text-anchor="middle" pointer-events="none" font-family="sans-serif" dy="1.5625" font-size="25" fill="#2A2C34"/><text text-anchor="middle" pointer-events="none" x="0" y="5" font-size="10px" fill="#2A2C34" font-family="sans-serif"> Sabargr…</text></g></g></svg>